<?xml version="1.0" encoding="UTF-8"?>
<!DOCTYPE svg PUBLIC "-//W3C//DTD SVG 1.0//EN" "http://www.w3.org/TR/2001/REC-SVG-20010904/DTD/svg10.dtd">
<svg fill-opacity="1" xmlns:xlink="http://www.w3.org/1999/xlink" color-rendering="auto" color-interpolation="auto" stroke="black" text-rendering="auto" stroke-linecap="square" stroke-miterlimit="10" stroke-opacity="1" shape-rendering="auto" fill="black" stroke-dasharray="none" font-weight="normal" stroke-width="1" xmlns="http://www.w3.org/2000/svg" font-family="'Dialog'" font-style="normal" stroke-linejoin="miter" font-size="12" stroke-dashoffset="0" image-rendering="auto">
  <!--Unicode Character 'HOT SPRINGS' (U+2668)-->
  <defs id="genericDefs"/>
  <g>
    <g>
      <path d="M120.375 192.375 Q117.9844 198 115.7344 208.8281 Q113.4844 219.6562 113.4844 225.9844 Q113.4844 232.1719 115.2422 239.1328 Q117 246.0938 123.8906 258.8906 Q130.3594 270.9844 131.9766 277.2422 Q133.5938 283.5 133.5938 288.8438 Q133.5938 297.4219 126.2812 317.1094 Q121.2188 330.8906 120.375 336.0938 L115.1719 332.2969 Q115.5938 328.7812 117.8438 321.6094 Q121.5 309.2344 121.5 299.8125 Q121.5 294.3281 119.8125 287.9297 Q118.125 281.5312 111.6562 268.875 Q104.9062 255.7969 103.1484 248.9766 Q101.3906 242.1562 101.3906 236.3906 Q101.3906 228.2344 105.4688 214.3828 Q109.5469 200.5312 116.0156 189.9844 L120.375 192.375 ZM164.3906 206.7188 Q162 212.4844 159.75 223.2422 Q157.5 234 157.5 240.4688 Q157.5 249.3281 160.1719 254.6016 Q162.8438 259.875 167.9062 265.9219 Q172.8281 271.5469 175.2891 276.2578 Q177.75 280.9688 177.75 288.8438 Q177.75 297.4219 170.4375 317.1094 Q165.2344 330.8906 164.3906 336.0938 L159.3281 332.2969 Q159.75 328.7812 161.8594 321.6094 Q165.6562 309.2344 165.6562 299.8125 Q165.6562 291.9375 163.125 286.9453 Q160.5938 281.9531 155.6719 275.9062 Q150.6094 269.7188 148.0078 264.5156 Q145.4062 259.3125 145.4062 250.7344 Q145.4062 242.8594 149.4844 229.1484 Q153.5625 215.4375 160.1719 204.4688 L164.3906 206.7188 ZM76.6406 206.7188 Q74.25 212.4844 72 223.2422 Q69.75 234 69.75 240.4688 Q69.75 249.3281 72.3516 254.6016 Q74.9531 259.875 80.1562 265.9219 Q85.0781 271.5469 87.4688 276.2578 Q89.8594 280.9688 89.8594 288.8438 Q89.8594 297.4219 82.5469 317.1094 Q77.3438 330.8906 76.6406 336.0938 L71.4375 332.2969 Q71.8594 328.7812 73.9688 321.6094 Q77.7656 309.2344 77.7656 299.8125 Q77.7656 291.9375 75.3047 286.9453 Q72.8438 281.9531 67.9219 275.9062 Q62.7188 269.7188 60.1875 264.5156 Q57.6562 259.3125 57.6562 250.7344 Q57.6562 242.8594 61.6641 229.1484 Q65.6719 215.4375 72.2812 204.4688 L76.6406 206.7188 ZM187.1719 282.7969 Q208.125 287.7188 219.8672 297.8438 Q231.6094 307.9688 231.6094 320.2031 Q231.6094 345.7969 200.9531 362.3906 Q170.2969 378.9844 123.8906 378.9844 Q77.3438 378.9844 46.7578 362.3906 Q16.1719 345.7969 16.1719 320.2031 Q16.1719 307.9688 27.9141 297.8438 Q39.6562 287.7188 60.4688 282.7969 L61.3125 289.125 Q46.125 292.5 37.8984 299.7422 Q29.6719 306.9844 29.6719 316.4062 Q29.6719 332.8594 56.3203 343.9688 Q82.9688 355.0781 123.8906 355.0781 Q164.6719 355.0781 191.3203 343.9688 Q217.9688 332.8594 217.9688 316.4062 Q217.9688 306.9844 209.7422 299.7422 Q201.5156 292.5 186.3281 289.125 L187.1719 282.7969 Z" stroke="none"/>
    </g>
  </g>
</svg>